<svg width="956" height="305" viewBox="0 0 956 305" fill="none" xmlns="http://www.w3.org/2000/svg">
<path d="M246.789 9.91906C243.204 3.7767 236.627 0 229.515 0H189L199.562 9.53125C206.562 15.8475 212.544 23.2073 217.296 31.3501L221.25 38.125L243.5 76.25L285.058 147.46C286.876 150.574 286.876 154.426 285.058 157.54L243.5 228.75L221.25 266.875L217.296 273.65C212.544 281.793 206.562 289.152 199.562 295.469L189 305H229.515C236.627 305 243.204 301.223 246.789 295.081L324.117 162.581C327.752 156.352 327.752 148.648 324.117 142.419L246.789 9.91906Z" fill="url(#paint0_linear_317_177)"/>
<path d="M164.871 9.42504C161.22 3.56312 154.802 0 147.896 0H117L208.706 147.213C210.722 150.449 210.722 154.551 208.706 157.787L117 305H147.896C154.802 305 161.22 301.437 164.871 295.575L247.412 163.075C251.445 156.602 251.445 148.398 247.412 141.925L164.871 9.42504Z" fill="url(#paint1_linear_317_177)"/>
<path d="M83.2112 9.91906C86.7959 3.7767 93.3728 0 100.485 0H141L121.029 18.0212C120.264 18.7113 119.611 19.5153 119.092 20.4049L108.75 38.125L86.5 76.25L44.9417 147.46C43.124 150.574 43.124 154.426 44.9417 157.54L86.5 228.75L108.75 266.875L119.875 285.938L130.438 295.469L141 305H100.485C93.3728 305 86.7959 301.223 83.2112 295.081L5.8833 162.581C2.248 156.352 2.248 148.648 5.8833 142.419L83.2112 9.91906Z" fill="#79002B"/>
<path d="M123.211 9.91906C126.796 3.7767 133.373 0 140.485 0H181L161.029 18.0212C160.264 18.7113 159.611 19.5153 159.092 20.4049L148.75 38.125L126.5 76.25L84.9417 147.46C83.124 150.574 83.124 154.426 84.9417 157.54L126.5 228.75L148.75 266.875L159.875 285.938L170.438 295.469L181 305H140.485C133.373 305 126.796 301.223 123.211 295.081L45.8833 162.581C42.248 156.352 42.248 148.648 45.8833 142.419L123.211 9.91906Z" fill="#990036"/>
<path d="M163.211 9.91906C166.796 3.7767 173.373 0 180.485 0H221L210.438 9.53125C203.438 15.8475 197.456 23.2073 192.704 31.3501L188.75 38.125L166.5 76.25L124.942 147.46C123.124 150.574 123.124 154.426 124.942 157.54L166.5 228.75L188.75 266.875L192.704 273.65C197.456 281.793 203.438 289.152 210.438 295.469L221 305H180.485C173.373 305 166.796 301.223 163.211 295.081L85.8833 162.581C82.248 156.352 82.248 148.648 85.8833 142.419L163.211 9.91906Z" fill="#AE003D"/>
<path d="M418.496 140.652C397.952 140.652 382.88 126.636 382.88 106.572C382.88 86.508 397.952 72.492 418.496 72.492C428.288 72.492 434.144 74.796 439.328 77.676V94.38C435.008 91.212 428.288 87.852 419.456 87.852C407.936 87.852 400.16 95.052 400.16 106.572C400.16 118.092 407.936 125.292 419.456 125.292C428.288 125.292 435.008 121.932 439.328 118.764V135.468C434.144 138.348 428.288 140.652 418.496 140.652ZM448.01 73.452H479.306C495.338 73.452 505.994 80.556 505.994 96.012C505.994 107.244 498.314 114.444 487.946 115.98L507.146 139.5H486.698L469.898 116.268H464.33V139.5H448.01V73.452ZM478.73 88.812H464.33V103.884H478.73C485.066 103.884 488.906 101.58 488.906 96.204C488.906 91.116 485.066 88.812 478.73 88.812ZM514.385 73.452H530.705V139.5H514.385V73.452ZM554.037 139.5H536.181L562.485 73.452H584.469L610.773 139.5H592.629L587.157 124.908H559.605L554.037 139.5ZM573.429 88.716L565.077 110.508H581.685L573.429 88.716ZM657.667 116.268V131.244L613.411 113.196V99.564L657.667 81.612V96.588L629.731 106.38L657.667 116.268ZM666.354 73.452H693.234C712.818 73.452 727.314 87.084 727.314 106.572C727.314 125.868 712.818 139.5 693.234 139.5H666.354V73.452ZM693.234 88.812H682.674V124.14H693.234C703.41 124.14 710.994 117.42 710.994 106.572C710.994 95.628 703.41 88.812 693.234 88.812ZM735.916 73.452H752.236V139.5H735.916V73.452ZM797.936 125.292C799.568 125.292 801.104 125.196 802.64 125.004V114.636H788.336V101.388H818.96V135.468C813.776 138.348 807.92 140.652 798.128 140.652C776.624 140.652 760.88 126.636 760.88 106.572C760.88 86.508 776.624 72.492 797.168 72.492C806.96 72.492 813.776 74.796 818.96 77.676V94.38C814.448 91.116 807.344 87.852 798.032 87.852C786.224 87.852 778.16 95.052 778.16 106.572C778.16 118.092 786.128 125.292 797.936 125.292ZM829.01 73.452H845.33V139.5H829.01V73.452ZM853.974 116.268L881.91 106.38L853.974 96.588V81.612L898.23 99.564V113.196L853.974 131.244V116.268Z" fill="#0B0B0B"/>
<path d="M383.52 241.5H380.576L399.84 197.468H403.04L422.304 241.5H419.296L412.576 225.884H390.304L383.52 241.5ZM401.44 200.092L391.328 223.388H411.488L401.44 200.092ZM455.643 237.788C455.643 247.772 449.179 252.252 440.859 252.252C435.291 252.252 430.619 250.268 427.803 248.604V245.66C430.875 247.58 435.163 249.756 440.731 249.756C447.899 249.756 452.955 245.852 452.955 237.98V235.484C450.779 237.404 446.491 240.028 441.179 240.028C432.347 240.028 426.459 234.588 426.459 224.86C426.459 213.404 433.819 206.94 443.867 206.94C448.859 206.94 452.635 208.348 455.643 209.628V237.788ZM429.211 224.732C429.211 232.86 434.011 237.532 441.499 237.532C446.683 237.532 450.715 235.036 452.955 233.052V211.228C450.523 210.268 447.835 209.372 443.803 209.372C435.035 209.372 429.211 215.004 429.211 224.732ZM470.343 203.1L478.087 193.116H480.903L488.711 203.1H485.895L479.495 195.228L473.095 203.1H470.343ZM493.319 239.644C490.759 241.372 485.767 242.14 481.735 242.14C472.007 242.14 464.647 236.316 464.647 224.54C464.647 213.084 471.239 206.812 480.071 206.812C489.159 206.812 494.343 213.02 494.343 224.348V225.692H467.335C467.655 235.164 474.119 239.516 481.863 239.516C486.023 239.516 491.015 238.62 493.319 237.084V239.644ZM480.007 209.372C473.031 209.372 467.591 214.172 467.335 223.452H491.719C491.463 214.3 487.367 209.372 480.007 209.372ZM503.628 207.58H506.124V212.06C509.132 209.82 513.42 206.94 519.436 206.94C526.156 206.94 531.468 210.716 531.468 219.74V241.5H528.78V219.996C528.78 212.636 524.556 209.436 518.988 209.436C513.868 209.436 509.004 212.252 506.316 214.172V241.5H503.628V207.58ZM567.537 209.18V211.932C565.617 210.396 562.161 209.436 558.513 209.436C549.681 209.436 542.897 215.324 542.897 224.54C542.897 233.564 549.681 239.516 558.513 239.516C562.161 239.516 565.553 238.428 567.537 237.02V239.708C565.297 241.18 562.033 242.14 558.449 242.14C548.145 242.14 540.209 235.1 540.209 224.54C540.209 213.724 548.145 206.812 558.513 206.812C562.033 206.812 565.297 207.644 567.537 209.18ZM577.473 201.564C576.065 201.564 575.041 200.604 575.041 199.324C575.041 198.044 576.065 197.02 577.473 197.02C578.817 197.02 579.905 198.044 579.905 199.324C579.905 200.604 578.817 201.564 577.473 201.564ZM576.129 207.58H578.817V241.5H576.129V207.58ZM611.001 219.484C611.001 212.124 606.137 209.5 600.953 209.5C595.129 209.5 590.841 212.316 588.025 215.452V212.444C590.137 210.012 595.001 206.94 601.081 206.94C607.609 206.94 613.689 210.332 613.689 219.74V241.5H611.193V235.932C608.185 239.196 603.705 242.14 598.137 242.14C591.225 242.14 587.897 238.556 587.897 233.564C587.897 227.932 593.017 223.26 602.809 223.26C606.329 223.26 609.273 223.836 611.001 224.412V219.484ZM590.457 233.5C590.457 237.98 594.041 239.836 598.329 239.836C603.385 239.836 607.673 237.148 611.001 233.884V226.524C609.273 225.948 606.393 225.372 603.705 225.372C594.681 225.372 590.457 228.956 590.457 233.5ZM640.9 197.468H654.66C668.996 197.468 678.596 206.236 678.596 219.548C678.596 232.732 668.996 241.5 654.66 241.5H640.9V197.468ZM654.66 200.028H643.652V238.94H654.66C667.396 238.94 675.844 231.196 675.844 219.548C675.844 207.772 667.396 200.028 654.66 200.028ZM689.348 201.564C687.94 201.564 686.916 200.604 686.916 199.324C686.916 198.044 687.94 197.02 689.348 197.02C690.692 197.02 691.78 198.044 691.78 199.324C691.78 200.604 690.692 201.564 689.348 201.564ZM688.004 207.58H690.692V241.5H688.004V207.58ZM728.956 237.788C728.956 247.772 722.492 252.252 714.172 252.252C708.604 252.252 703.932 250.268 701.116 248.604V245.66C704.188 247.58 708.476 249.756 714.044 249.756C721.212 249.756 726.268 245.852 726.268 237.98V235.484C724.092 237.404 719.804 240.028 714.492 240.028C705.66 240.028 699.772 234.588 699.772 224.86C699.772 213.404 707.132 206.94 717.18 206.94C722.172 206.94 725.948 208.348 728.956 209.628V237.788ZM702.524 224.732C702.524 232.86 707.324 237.532 714.812 237.532C719.996 237.532 724.028 235.036 726.268 233.052V211.228C723.836 210.268 721.148 209.372 717.116 209.372C708.348 209.372 702.524 215.004 702.524 224.732ZM741.223 201.564C739.815 201.564 738.791 200.604 738.791 199.324C738.791 198.044 739.815 197.02 741.223 197.02C742.567 197.02 743.655 198.044 743.655 199.324C743.655 200.604 742.567 201.564 741.223 201.564ZM739.879 207.58H742.567V241.5H739.879V207.58ZM771.167 239.964C769.823 240.988 767.391 242.14 763.999 242.14C759.647 242.14 755.103 240.412 755.103 232.924V210.012H749.791V209.18L756.959 201.18H757.791V207.58H770.783V210.012H757.791V232.924C757.791 237.596 760.159 239.644 764.319 239.644C767.199 239.644 769.567 238.556 771.167 237.34V239.964ZM800.313 219.484C800.313 212.124 795.449 209.5 790.265 209.5C784.441 209.5 780.153 212.316 777.337 215.452V212.444C779.449 210.012 784.313 206.94 790.393 206.94C796.921 206.94 803.001 210.332 803.001 219.74V241.5H800.505V235.932C797.497 239.196 793.017 242.14 787.449 242.14C780.537 242.14 777.209 238.556 777.209 233.564C777.209 227.932 782.329 223.26 792.121 223.26C795.641 223.26 798.585 223.836 800.313 224.412V219.484ZM779.769 233.5C779.769 237.98 783.353 239.836 787.641 239.836C792.697 239.836 796.985 237.148 800.313 233.884V226.524C798.585 225.948 795.705 225.372 793.017 225.372C783.993 225.372 779.769 228.956 779.769 233.5ZM813.628 197.468L816.316 196.764V241.5H813.628V197.468Z" fill="#0B0B0B"/>
<defs>
<linearGradient id="paint0_linear_317_177" x1="220" y1="1.20217e-06" x2="220" y2="36" gradientUnits="userSpaceOnUse">
<stop stop-color="#29303C"/>
<stop offset="1" stop-color="#39445A"/>
</linearGradient>
<linearGradient id="paint1_linear_317_177" x1="185.5" y1="43" x2="185.5" y2="89.5" gradientUnits="userSpaceOnUse">
<stop stop-color="#29303C"/>
<stop offset="1" stop-color="#39445A"/>
</linearGradient>
</defs>
</svg>
