<svg width="330" height="305" viewBox="0 0 330 305" fill="none" xmlns="http://www.w3.org/2000/svg">
<path d="M246.789 9.91906C243.204 3.7767 236.627 0 229.515 0H189L199.562 9.53125C206.562 15.8475 212.544 23.2073 217.296 31.3501L221.25 38.125L243.5 76.25L285.058 147.46C286.876 150.574 286.876 154.426 285.058 157.54L243.5 228.75L221.25 266.875L217.296 273.65C212.544 281.793 206.562 289.152 199.562 295.469L189 305H229.515C236.627 305 243.204 301.223 246.789 295.081L324.117 162.581C327.752 156.352 327.752 148.648 324.117 142.419L246.789 9.91906Z" fill="url(#paint0_linear_23_67)"/>
<path d="M164.871 9.42504C161.22 3.56312 154.802 0 147.896 0H117L208.706 147.213C210.722 150.449 210.722 154.551 208.706 157.787L117 305H147.896C154.802 305 161.22 301.437 164.871 295.575L247.412 163.075C251.445 156.602 251.445 148.398 247.412 141.925L164.871 9.42504Z" fill="url(#paint1_linear_23_67)"/>
<path d="M83.2112 9.91906C86.7959 3.7767 93.3728 0 100.485 0H141L121.029 18.0212C120.264 18.7113 119.611 19.5153 119.092 20.4049L108.75 38.125L86.5 76.25L44.9417 147.46C43.124 150.574 43.124 154.426 44.9417 157.54L86.5 228.75L108.75 266.875L119.875 285.938L130.438 295.469L141 305H100.485C93.3728 305 86.7959 301.223 83.2112 295.081L5.8833 162.581C2.248 156.352 2.248 148.648 5.8833 142.419L83.2112 9.91906Z" fill="#79002B"/>
<path d="M123.211 9.91906C126.796 3.7767 133.373 0 140.485 0H181L161.029 18.0212C160.264 18.7113 159.611 19.5153 159.092 20.4049L148.75 38.125L126.5 76.25L84.9417 147.46C83.124 150.574 83.124 154.426 84.9417 157.54L126.5 228.75L148.75 266.875L159.875 285.938L170.438 295.469L181 305H140.485C133.373 305 126.796 301.223 123.211 295.081L45.8833 162.581C42.248 156.352 42.248 148.648 45.8833 142.419L123.211 9.91906Z" fill="#990036"/>
<path d="M163.211 9.91906C166.796 3.7767 173.373 0 180.485 0H221L210.438 9.53125C203.438 15.8475 197.456 23.2073 192.704 31.3501L188.75 38.125L166.5 76.25L124.942 147.46C123.124 150.574 123.124 154.426 124.942 157.54L166.5 228.75L188.75 266.875L192.704 273.65C197.456 281.793 203.438 289.152 210.438 295.469L221 305H180.485C173.373 305 166.796 301.223 163.211 295.081L85.8833 162.581C82.248 156.352 82.248 148.648 85.8833 142.419L163.211 9.91906Z" fill="#AE003D"/>
<defs>
<linearGradient id="paint0_linear_23_67" x1="220" y1="1.20217e-06" x2="220" y2="36" gradientUnits="userSpaceOnUse">
<stop stop-color="#29303C"/>
<stop offset="1" stop-color="#39445A"/>
</linearGradient>
<linearGradient id="paint1_linear_23_67" x1="185.5" y1="43" x2="185.5" y2="89.5" gradientUnits="userSpaceOnUse">
<stop stop-color="#29303C"/>
<stop offset="1" stop-color="#39445A"/>
</linearGradient>
</defs>
</svg>
