<svg width="956" height="305" viewBox="0 0 956 305" fill="none" xmlns="http://www.w3.org/2000/svg">
<path d="M246.789 9.91906C243.204 3.7767 236.627 0 229.515 0H189L199.562 9.53125C206.562 15.8475 212.544 23.2073 217.296 31.3501L221.25 38.125L243.5 76.25L285.058 147.46C286.876 150.574 286.876 154.426 285.058 157.54L243.5 228.75L221.25 266.875L217.296 273.65C212.544 281.793 206.562 289.152 199.562 295.469L189 305H229.515C236.627 305 243.204 301.223 246.789 295.081L324.117 162.581C327.752 156.352 327.752 148.648 324.117 142.419L246.789 9.91906Z" fill="url(#paint0_linear_317_176)"/>
<path d="M164.871 9.42504C161.22 3.56312 154.802 0 147.896 0H117L208.706 147.213C210.722 150.449 210.722 154.551 208.706 157.787L117 305H147.896C154.802 305 161.22 301.437 164.871 295.575L247.412 163.075C251.445 156.602 251.445 148.398 247.412 141.925L164.871 9.42504Z" fill="url(#paint1_linear_317_176)"/>
<path d="M83.2112 9.91906C86.7959 3.7767 93.3728 0 100.485 0H141L121.029 18.0212C120.264 18.7113 119.611 19.5153 119.092 20.4049L108.75 38.125L86.5 76.25L44.9417 147.46C43.124 150.574 43.124 154.426 44.9417 157.54L86.5 228.75L108.75 266.875L119.875 285.938L130.438 295.469L141 305H100.485C93.3728 305 86.7959 301.223 83.2112 295.081L5.8833 162.581C2.248 156.352 2.248 148.648 5.8833 142.419L83.2112 9.91906Z" fill="#79002B"/>
<path d="M123.211 9.91906C126.796 3.7767 133.373 0 140.485 0H181L161.029 18.0212C160.264 18.7113 159.611 19.5153 159.092 20.4049L148.75 38.125L126.5 76.25L84.9417 147.46C83.124 150.574 83.124 154.426 84.9417 157.54L126.5 228.75L148.75 266.875L159.875 285.938L170.438 295.469L181 305H140.485C133.373 305 126.796 301.223 123.211 295.081L45.8833 162.581C42.248 156.352 42.248 148.648 45.8833 142.419L123.211 9.91906Z" fill="#990036"/>
<path d="M163.211 9.91906C166.796 3.7767 173.373 0 180.485 0H221L210.438 9.53125C203.438 15.8475 197.456 23.2073 192.704 31.3501L188.75 38.125L166.5 76.25L124.942 147.46C123.124 150.574 123.124 154.426 124.942 157.54L166.5 228.75L188.75 266.875L192.704 273.65C197.456 281.793 203.438 289.152 210.438 295.469L221 305H180.485C173.373 305 166.796 301.223 163.211 295.081L85.8833 162.581C82.248 156.352 82.248 148.648 85.8833 142.419L163.211 9.91906Z" fill="#AE003D"/>
<path d="M418.496 148.152C397.952 148.152 382.88 134.136 382.88 114.072C382.88 94.008 397.952 79.992 418.496 79.992C428.288 79.992 434.144 82.296 439.328 85.176V101.88C435.008 98.712 428.288 95.352 419.456 95.352C407.936 95.352 400.16 102.552 400.16 114.072C400.16 125.592 407.936 132.792 419.456 132.792C428.288 132.792 435.008 129.432 439.328 126.264V142.968C434.144 145.848 428.288 148.152 418.496 148.152ZM448.01 80.952H479.306C495.338 80.952 505.994 88.056 505.994 103.512C505.994 114.744 498.314 121.944 487.946 123.48L507.146 147H486.698L469.898 123.768H464.33V147H448.01V80.952ZM478.73 96.312H464.33V111.384H478.73C485.066 111.384 488.906 109.08 488.906 103.704C488.906 98.616 485.066 96.312 478.73 96.312ZM514.385 80.952H530.705V147H514.385V80.952ZM554.037 147H536.181L562.485 80.952H584.469L610.773 147H592.629L587.157 132.408H559.605L554.037 147ZM573.429 96.216L565.077 118.008H581.685L573.429 96.216ZM657.667 123.768V138.744L613.411 120.696V107.064L657.667 89.112V104.088L629.731 113.88L657.667 123.768ZM666.354 80.952H693.234C712.818 80.952 727.314 94.584 727.314 114.072C727.314 133.368 712.818 147 693.234 147H666.354V80.952ZM693.234 96.312H682.674V131.64H693.234C703.41 131.64 710.994 124.92 710.994 114.072C710.994 103.128 703.41 96.312 693.234 96.312ZM735.916 80.952H752.236V147H735.916V80.952ZM797.936 132.792C799.568 132.792 801.104 132.696 802.64 132.504V122.136H788.336V108.888H818.96V142.968C813.776 145.848 807.92 148.152 798.128 148.152C776.624 148.152 760.88 134.136 760.88 114.072C760.88 94.008 776.624 79.992 797.168 79.992C806.96 79.992 813.776 82.296 818.96 85.176V101.88C814.448 98.616 807.344 95.352 798.032 95.352C786.224 95.352 778.16 102.552 778.16 114.072C778.16 125.592 786.128 132.792 797.936 132.792ZM829.01 80.952H845.33V147H829.01V80.952ZM853.974 123.768L881.91 113.88L853.974 104.088V89.112L898.23 107.064V120.696L853.974 138.744V123.768Z" fill="white"/>
<path d="M383.52 234H380.576L399.84 189.968H403.04L422.304 234H419.296L412.576 218.384H390.304L383.52 234ZM401.44 192.592L391.328 215.888H411.488L401.44 192.592ZM455.643 230.288C455.643 240.272 449.179 244.752 440.859 244.752C435.291 244.752 430.619 242.768 427.803 241.104V238.16C430.875 240.08 435.163 242.256 440.731 242.256C447.899 242.256 452.955 238.352 452.955 230.48V227.984C450.779 229.904 446.491 232.528 441.179 232.528C432.347 232.528 426.459 227.088 426.459 217.36C426.459 205.904 433.819 199.44 443.867 199.44C448.859 199.44 452.635 200.848 455.643 202.128V230.288ZM429.211 217.232C429.211 225.36 434.011 230.032 441.499 230.032C446.683 230.032 450.715 227.536 452.955 225.552V203.728C450.523 202.768 447.835 201.872 443.803 201.872C435.035 201.872 429.211 207.504 429.211 217.232ZM470.343 195.6L478.087 185.616H480.903L488.711 195.6H485.895L479.495 187.728L473.095 195.6H470.343ZM493.319 232.144C490.759 233.872 485.767 234.64 481.735 234.64C472.007 234.64 464.647 228.816 464.647 217.04C464.647 205.584 471.239 199.312 480.071 199.312C489.159 199.312 494.343 205.52 494.343 216.848V218.192H467.335C467.655 227.664 474.119 232.016 481.863 232.016C486.023 232.016 491.015 231.12 493.319 229.584V232.144ZM480.007 201.872C473.031 201.872 467.591 206.672 467.335 215.952H491.719C491.463 206.8 487.367 201.872 480.007 201.872ZM503.628 200.08H506.124V204.56C509.132 202.32 513.42 199.44 519.436 199.44C526.156 199.44 531.468 203.216 531.468 212.24V234H528.78V212.496C528.78 205.136 524.556 201.936 518.988 201.936C513.868 201.936 509.004 204.752 506.316 206.672V234H503.628V200.08ZM567.537 201.68V204.432C565.617 202.896 562.161 201.936 558.513 201.936C549.681 201.936 542.897 207.824 542.897 217.04C542.897 226.064 549.681 232.016 558.513 232.016C562.161 232.016 565.553 230.928 567.537 229.52V232.208C565.297 233.68 562.033 234.64 558.449 234.64C548.145 234.64 540.209 227.6 540.209 217.04C540.209 206.224 548.145 199.312 558.513 199.312C562.033 199.312 565.297 200.144 567.537 201.68ZM577.473 194.064C576.065 194.064 575.041 193.104 575.041 191.824C575.041 190.544 576.065 189.52 577.473 189.52C578.817 189.52 579.905 190.544 579.905 191.824C579.905 193.104 578.817 194.064 577.473 194.064ZM576.129 200.08H578.817V234H576.129V200.08ZM611.001 211.984C611.001 204.624 606.137 202 600.953 202C595.129 202 590.841 204.816 588.025 207.952V204.944C590.137 202.512 595.001 199.44 601.081 199.44C607.609 199.44 613.689 202.832 613.689 212.24V234H611.193V228.432C608.185 231.696 603.705 234.64 598.137 234.64C591.225 234.64 587.897 231.056 587.897 226.064C587.897 220.432 593.017 215.76 602.809 215.76C606.329 215.76 609.273 216.336 611.001 216.912V211.984ZM590.457 226C590.457 230.48 594.041 232.336 598.329 232.336C603.385 232.336 607.673 229.648 611.001 226.384V219.024C609.273 218.448 606.393 217.872 603.705 217.872C594.681 217.872 590.457 221.456 590.457 226ZM640.9 189.968H654.66C668.996 189.968 678.596 198.736 678.596 212.048C678.596 225.232 668.996 234 654.66 234H640.9V189.968ZM654.66 192.528H643.652V231.44H654.66C667.396 231.44 675.844 223.696 675.844 212.048C675.844 200.272 667.396 192.528 654.66 192.528ZM689.348 194.064C687.94 194.064 686.916 193.104 686.916 191.824C686.916 190.544 687.94 189.52 689.348 189.52C690.692 189.52 691.78 190.544 691.78 191.824C691.78 193.104 690.692 194.064 689.348 194.064ZM688.004 200.08H690.692V234H688.004V200.08ZM728.956 230.288C728.956 240.272 722.492 244.752 714.172 244.752C708.604 244.752 703.932 242.768 701.116 241.104V238.16C704.188 240.08 708.476 242.256 714.044 242.256C721.212 242.256 726.268 238.352 726.268 230.48V227.984C724.092 229.904 719.804 232.528 714.492 232.528C705.66 232.528 699.772 227.088 699.772 217.36C699.772 205.904 707.132 199.44 717.18 199.44C722.172 199.44 725.948 200.848 728.956 202.128V230.288ZM702.524 217.232C702.524 225.36 707.324 230.032 714.812 230.032C719.996 230.032 724.028 227.536 726.268 225.552V203.728C723.836 202.768 721.148 201.872 717.116 201.872C708.348 201.872 702.524 207.504 702.524 217.232ZM741.223 194.064C739.815 194.064 738.791 193.104 738.791 191.824C738.791 190.544 739.815 189.52 741.223 189.52C742.567 189.52 743.655 190.544 743.655 191.824C743.655 193.104 742.567 194.064 741.223 194.064ZM739.879 200.08H742.567V234H739.879V200.08ZM771.167 232.464C769.823 233.488 767.391 234.64 763.999 234.64C759.647 234.64 755.103 232.912 755.103 225.424V202.512H749.791V201.68L756.959 193.68H757.791V200.08H770.783V202.512H757.791V225.424C757.791 230.096 760.159 232.144 764.319 232.144C767.199 232.144 769.567 231.056 771.167 229.84V232.464ZM800.313 211.984C800.313 204.624 795.449 202 790.265 202C784.441 202 780.153 204.816 777.337 207.952V204.944C779.449 202.512 784.313 199.44 790.393 199.44C796.921 199.44 803.001 202.832 803.001 212.24V234H800.505V228.432C797.497 231.696 793.017 234.64 787.449 234.64C780.537 234.64 777.209 231.056 777.209 226.064C777.209 220.432 782.329 215.76 792.121 215.76C795.641 215.76 798.585 216.336 800.313 216.912V211.984ZM779.769 226C779.769 230.48 783.353 232.336 787.641 232.336C792.697 232.336 796.985 229.648 800.313 226.384V219.024C798.585 218.448 795.705 217.872 793.017 217.872C783.993 217.872 779.769 221.456 779.769 226ZM813.628 189.968L816.316 189.264V234H813.628V189.968Z" fill="white"/>
<defs>
<linearGradient id="paint0_linear_317_176" x1="220" y1="1.20217e-06" x2="220" y2="36" gradientUnits="userSpaceOnUse">
<stop stop-color="#29303C"/>
<stop offset="1" stop-color="white"/>
</linearGradient>
<linearGradient id="paint1_linear_317_176" x1="185.5" y1="43" x2="185.5" y2="89.5" gradientUnits="userSpaceOnUse">
<stop stop-color="#29303C"/>
<stop offset="1" stop-color="white"/>
</linearGradient>
</defs>
</svg>
