<svg width="590" height="50" viewBox="0 0 590 50" fill="none" xmlns="http://www.w3.org/2000/svg">
<path d="M19 0H567.987C569.478 0 570.892 0.665555 571.842 1.81505L588.368 21.815C589.896 23.6636 589.896 26.3364 588.368 28.185L571.842 48.185C570.892 49.3344 569.479 50 567.987 50H19V0Z" fill="#79002B"/>
<path d="M9 0H558.954C560.443 0 561.856 0.664221 562.805 1.81174L579.361 21.8117C580.892 23.6615 580.892 26.3385 579.361 28.1883L562.805 48.1883C561.856 49.3358 560.444 50 558.954 50H9V0Z" fill="#990036"/>
<path d="M0 0H548.987C550.478 0 551.892 0.665555 552.842 1.81505L569.368 21.815C570.896 23.6636 570.896 26.3364 569.368 28.185L552.842 48.185C551.892 49.3344 550.479 50 548.987 50H0V0Z" fill="#AE003D"/>
</svg>
